<svg xmlns="http://www.w3.org/2000/svg" version="1.1" xmlns:xlink="http://www.w3.org/1999/xlink" xmlns:svgjs="http://svgjs.com/svgjs" width="1000" height="1000"><rect width="1000" height="1000" rx="150" ry="150" fill="#1095c1"></rect><g transform="matrix(29.41176470588235,0,0,29.41176470588235,333.20925549899835,253.27871302997366)"><svg xmlns="http://www.w3.org/2000/svg" version="1.1" xmlns:xlink="http://www.w3.org/1999/xlink" xmlns:svgjs="http://svgjs.com/svgjs" width="11" height="17"><svg width="11" height="17" viewBox="0 0 11 17" fill="none" xmlns="http://www.w3.org/2000/svg">
<path d="M2.75801 14.1969V14.4995H3.07835H6.87626C7.82444 14.4995 8.52929 14.4997 9.05691 14.5145C9.59124 14.5295 9.91444 14.559 10.1135 14.6082C10.2917 14.6523 10.3111 14.6961 10.3183 14.7123L10.319 14.7142C10.3295 14.7368 10.3405 14.7766 10.347 14.8506C10.3534 14.9255 10.3538 15.0145 10.3538 15.1344V15.7692H5.67692H1V8.38462V1H5.67692H10.3538V1.82232V2.64464H6.87626H3.07835H2.75801V2.94729V5.19721V7.44715V7.7498H3.07835H6.2766C7.0649 7.7498 7.65119 7.75083 8.09113 7.76643C8.53825 7.78231 8.80156 7.81278 8.96018 7.85929C9.09403 7.89853 9.10873 7.93435 9.11835 7.95777L9.11896 7.95927C9.14667 8.02639 9.15451 8.13665 9.15451 8.38462C9.15451 8.63258 9.14667 8.74284 9.11896 8.80996L9.11835 8.81146C9.10872 8.83488 9.09401 8.8707 8.96018 8.90994C8.80156 8.95645 8.53825 8.98691 8.09113 9.0028C7.65119 9.01841 7.0649 9.01943 6.2766 9.01943H3.07835H2.75801V9.32208V11.7595V14.1969Z" fill="white" stroke="white" stroke-width="1.2"></path>
</svg></svg></g></svg>