<svg width="60" height="60" viewBox="0 0 60 60" fill="none" xmlns="http://www.w3.org/2000/svg">
<circle cx="30" cy="30" r="30" fill="#1095C1"/>
<path d="M23.0193 38.8068L21.1081 36.8399C20.5824 36.3698 20.3968 35.6028 20.5762 34.9039C20.7617 34.3534 21.0091 33.6359 21.3617 32.8133H14.8178C14.2846 32.8133 13.7919 32.5288 13.5279 32.0649C13.2638 31.601 13.2689 31.032 13.5409 30.5743L16.7865 25.1004C17.5881 23.7459 19.0441 22.8614 20.6195 22.8614H25.7037C25.8521 22.6696 26.0006 22.4408 26.149 22.2181C31.2147 14.7483 38.7606 14.4964 43.2635 15.3263C43.9871 15.4586 44.5438 16.0163 44.6737 16.7356C45.5025 21.2409 45.2551 28.7868 37.7834 33.8524C37.5669 34.0009 37.2762 34.1493 37.0844 34.2421V39.382C37.0844 40.9592 36.2556 42.4127 34.9011 43.2168L29.4272 46.4578C28.9695 46.73 28.4004 46.7361 27.9365 46.4764C27.4727 46.2104 27.1881 45.7156 27.1881 45.1837V38.5532C26.316 38.85 25.5552 39.1036 24.98 39.2892C24.2873 39.5119 23.5327 39.3201 23.0193 38.8068ZM37.0844 25.3354C38.4514 25.3354 39.5585 24.284 39.5585 22.8614C39.5585 21.5501 38.4514 20.3873 37.0844 20.3873C35.7175 20.3873 34.6104 21.5501 34.6104 22.8614C34.6104 24.284 35.7175 25.3354 37.0844 25.3354Z" fill="white"/>
</svg>
