<svg width="60" height="60" viewBox="0 0 60 60" fill="none" xmlns="http://www.w3.org/2000/svg">
<circle cx="30" cy="30" r="30" fill="#1095C1"/>
<path d="M33.3813 27.4997H41.1304C42.0547 27.4997 42.8887 28.1481 43.1528 29.1168C43.5351 30.0934 43.2918 31.1949 42.5968 31.8824L24.8051 49.3821C24.0198 50.1477 22.871 50.2102 22.0314 49.5227C21.1912 48.8353 20.8854 47.5853 21.2947 46.515L26.6399 32.4996H18.8282C17.9643 32.4996 17.1347 31.8512 16.8089 30.8824C16.483 29.9059 16.729 28.8043 17.4264 28.1169L35.2161 10.6186C36.0014 9.84998 37.1481 9.79146 37.9891 10.4776C38.83 11.164 39.1358 12.4117 38.7257 13.4851L33.3813 27.4997Z" fill="white"/>
</svg>
