<svg width="60" height="60" viewBox="0 0 60 60" fill="none" xmlns="http://www.w3.org/2000/svg">
<circle cx="30" cy="30" r="30" fill="#1095C1"/>
<path d="M25.5469 13.3334C27.458 13.3334 29.0104 14.8839 29.0104 16.7969V41.5365C29.0104 43.4476 27.458 45 25.5469 45C23.7595 45 22.2875 43.6455 22.1019 41.9014C21.7803 41.988 21.4401 42.0313 21.0938 42.0313C18.9074 42.0313 17.1354 40.2562 17.1354 38.073C17.1354 37.6153 17.214 37.17 17.3575 36.7618C15.4921 36.0567 14.1667 34.2507 14.1667 32.1355C14.1667 30.1625 15.3239 28.4554 16.9975 27.6638C16.4644 26.9896 16.1459 26.0804 16.1459 25.2084C16.1459 23.3096 17.4812 21.7263 19.2637 21.3366C19.1666 20.9965 19.1146 20.6316 19.1146 20.2605C19.1146 18.4087 20.3887 16.8538 22.1019 16.4215C22.2875 14.6854 23.7595 13.3334 25.5469 13.3334ZM37.8981 16.4215C39.6113 16.8538 40.8854 18.4087 40.8854 20.2605C40.8854 20.6316 40.836 20.9965 40.737 21.3366C42.5182 21.7263 43.8542 23.3096 43.8542 25.2084C43.8542 26.0804 43.5388 26.9896 43.0007 27.6638C44.6768 28.4554 45.8334 30.1625 45.8334 32.1355C45.8334 34.2507 44.5098 36.0567 42.6419 36.7618C42.7842 37.17 42.8646 37.6153 42.8646 38.073C42.8646 40.2562 41.0895 42.0313 38.9063 42.0313C38.5599 42.0313 38.2197 41.988 37.8981 41.9014C37.7126 43.6455 36.2406 45 34.4531 45C32.542 45 30.9896 43.4476 30.9896 41.5365V16.7969C30.9896 14.8839 32.542 13.3334 34.4531 13.3334C36.2406 13.3334 37.7126 14.6854 37.8981 16.4215Z" fill="white"/>
</svg>
