<svg width="32" height="32" viewBox="0 0 32 32" fill="none" xmlns="http://www.w3.org/2000/svg">
<rect width="32" height="32" rx="5" fill="#1095C1"/>
<path d="M12.758 22.1969V22.4995H13.0784H16.8763C17.8244 22.4995 18.5293 22.4997 19.0569 22.5145C19.5912 22.5295 19.9144 22.559 20.1135 22.6082C20.2917 22.6523 20.3111 22.6961 20.3183 22.7123L20.319 22.7142C20.3295 22.7368 20.3405 22.7766 20.347 22.8506C20.3534 22.9255 20.3538 23.0145 20.3538 23.1344V23.7692H15.6769H11V16.3846V9H15.6769H20.3538V9.82232V10.6446H16.8763H13.0784H12.758V10.9473V13.1972V15.4471V15.7498H13.0784H16.2766C17.0649 15.7498 17.6512 15.7508 18.0911 15.7664C18.5383 15.7823 18.8016 15.8128 18.9602 15.8593C19.094 15.8985 19.1087 15.9344 19.1183 15.9578L19.119 15.9593C19.1467 16.0264 19.1545 16.1366 19.1545 16.3846C19.1545 16.6326 19.1467 16.7428 19.119 16.81L19.1183 16.8115C19.1087 16.8349 19.094 16.8707 18.9602 16.9099C18.8016 16.9565 18.5383 16.9869 18.0911 17.0028C17.6512 17.0184 17.0649 17.0194 16.2766 17.0194H13.0784H12.758V17.3221V19.7595V22.1969Z" fill="white" stroke="white" stroke-width="1.2"/>
</svg>
